<svg width="512" height="512" viewBox="0 0 512 512" fill="none" xmlns="http://www.w3.org/2000/svg">
<path fill-rule="evenodd" clip-rule="evenodd" d="M196 64C218.983 64 240.018 72.3367 256.247 86.1509C279.722 105.845 286.008 108.95 322.488 102.924C329.3 101.66 336.323 101 343.5 101C406.737 101 458 152.263 458 215.5C458 251.368 441.508 283.384 415.693 304.378C388.078 327.217 387.545 332.705 385.847 355.801C383.373 394.432 351.256 425 312 425C301.795 425 292.073 422.934 283.228 419.198C262.665 411.082 257.165 409.626 227.519 423.124C213.157 430.092 197.035 434 180 434C119.801 434 71 385.199 71 325C71 299.422 79.81 275.902 94.5609 257.309C117.649 227.563 118.437 218.509 108.495 188.569C104.939 178.713 103 168.083 103 157C103 105.638 144.638 64 196 64ZM286.615 345.91C296.321 341.89 305.14 335.997 312.569 328.569L312.553 328.553C314.665 326.72 316 324.016 316 321C316 315.477 311.523 311 306 311C302.984 311 300.28 312.335 298.447 314.447L298.426 314.426C292.855 319.998 286.241 324.417 278.961 327.433C271.681 330.448 263.879 332 256 332C248.121 332 240.319 330.448 233.039 327.433C225.759 324.417 219.145 319.998 213.574 314.426L213.553 314.447C211.72 312.335 209.016 311 206 311C200.477 311 196 315.477 196 321C196 324.016 197.335 326.72 199.447 328.553L199.431 328.569C206.86 335.997 215.679 341.89 225.385 345.91C235.091 349.931 245.494 352 256 352C266.506 352 276.909 349.931 286.615 345.91ZM336 212C336 200.954 327.046 192 316 192C304.954 192 296 200.954 296 212V252C296 263.046 304.954 272 316 272C327.046 272 336 263.046 336 252V212ZM196 192C184.954 192 176 200.954 176 212V252C176 263.046 184.954 272 196 272C207.046 272 216 263.046 216 252V212C216 200.954 207.046 192 196 192Z" fill="white"/>
</svg>
